<?xml version="1.0" standalone="no"?>
<!DOCTYPE svg PUBLIC "-//W3C//DTD SVG 1.1//EN" "http://www.w3.org/Graphics/SVG/1.1/DTD/svg11.dtd" >
<svg xmlns="http://www.w3.org/2000/svg">
<metadata>
This is a custom SVG webfont generated by Font Squirrel.
Copyright   : Copyright c 2011 Agustina Mingote agustinamingotegmailcom Copyright c 2011 Constanza Artigas Preller artigasconstanzagmailcom with Reserved Font Name Homenaje
Designer    : Constanza Artigas Preller Agustina Mingote
Foundry     : Constanza Artigas Preller Agustina Mingote
</metadata>
<defs>
<font id="HomenajeRegular" horiz-adv-x="765" >
<font-face units-per-em="2048" ascent="1638" descent="-410" />
<missing-glyph horiz-adv-x="307" />
<glyph unicode=" "  horiz-adv-x="307" />
<glyph unicode="&#x09;" horiz-adv-x="307" />
<glyph unicode="&#xa0;" horiz-adv-x="307" />
<glyph unicode="!" horiz-adv-x="428" d="M135 0v211h164v-211h-164zM135 338v1096h164v-1096h-164z" />
<glyph unicode="&#x22;" horiz-adv-x="708" d="M104 1044l27 390h164l-19 -390h-172zM391 1044l27 390h164l-19 -390h-172z" />
<glyph unicode="#" horiz-adv-x="1222" d="M102 416v135h246v338h-246v135h246v410h164v-410h213v410h164v-410h237v-135h-237v-338h237v-135h-237v-416h-164v416h-213v-416h-164v416h-246zM512 551h213v338h-213v-338z" />
<glyph unicode="$" horiz-adv-x="1155" d="M334 980q0 91 64.5 161.5t183.5 95.5v197h163v-185h125v-135h-157q-98 0 -149.5 -38t-51.5 -89t47 -94t114.5 -72.5t136.5 -66.5t116 -102.5t47 -157.5q0 -221 -228 -287v-207h-163v184h-234v135h223q117 0 169.5 46.5t52.5 103.5t-34 97t-85 62.5t-110.5 52.5t-111 61.5 t-85 89t-33.5 148.5z" />
<glyph unicode="%" horiz-adv-x="1597" d="M139 1001v193q0 254 301 254t301 -254v-193q0 -129 -78.5 -201.5t-222 -72.5t-222.5 72.5t-79 201.5zM303 991q0 -141 135 -141q139 0 140 141v189q0 72 -37 108.5t-103 36.5q-135 0 -135 -145v-189zM442 0l562 1434h167l-550 -1434h-179zM899 260v193q0 254 301 254 t301 -254v-193q0 -129 -79 -201.5t-222 -72.5t-222 72.5t-79 201.5zM1063 250q0 -141 135 -141q139 0 139 141v188q0 72 -36.5 109t-102.5 37q-135 0 -135 -146v-188z" />
<glyph unicode="&#x26;" horiz-adv-x="1067" d="M61 423q0 122 60.5 208t144.5 131q-174 106 -174 328q0 172 103.5 258t296.5 86h350v-123h-312q-274 0 -274 -221q0 -123 66.5 -193t187.5 -70h168v236h164v-236h164v-122h-164v-705h-320q-328 0 -416 201q-45 100 -45 222zM225 424q0 -145 83 -223t233 -78h137v582h-160 q-119 0 -206 -68t-87 -213z" />
<glyph unicode="'" horiz-adv-x="413" d="M104 1044l27 390h164l-16 -390h-175z" />
<glyph unicode="(" horiz-adv-x="602" d="M123 389v473q0 115 27.5 223.5t66.5 184.5q82 156 143 217l29 29h178q-125 -125 -202.5 -298.5t-77.5 -357.5v-471q0 -176 75.5 -347t204.5 -308h-178l-29 28q-18 18 -64 83t-81 136.5t-63.5 182t-28.5 225.5z" />
<glyph unicode=")" horiz-adv-x="595" d="M119 -266q129 137 204.5 308t75.5 347v471q0 184 -77.5 357.5t-202.5 298.5h178l29 -29q18 -18 64 -83t81 -135.5t63.5 -181t28.5 -225.5v-473q0 -115 -27.5 -224.5t-66.5 -184.5q-82 -156 -145 -218l-27 -28h-178z" />
<glyph unicode="*" horiz-adv-x="933" d="M96 1100l41 139l269 -76l-17 264h160l-10 -264l266 76l53 -154l-280 -57q162 -207 184 -235l-135 -99l-156 238l-152 -238l-137 90l193 244z" />
<glyph unicode="+" horiz-adv-x="1134" d="M61 627v135h324v389h164v-389h323v-135h-323v-418h-164v418h-324z" />
<glyph unicode="," horiz-adv-x="292" d="M-2 -252l88 252v211h164v-209l-125 -254h-127z" />
<glyph unicode="-" horiz-adv-x="495" d="M10 397v135h475v-135h-475z" />
<glyph unicode="." horiz-adv-x="356" d="M84 0v211h164v-211h-164z" />
<glyph unicode="/" horiz-adv-x="817" d="M43 0l561 1434h168l-551 -1434h-178z" />
<glyph unicode="0" horiz-adv-x="929" d="M123 240v974q0 121 93 177.5t249 56.5t249 -56.5t93 -177.5v-974q0 -123 -95.5 -188.5t-247 -65.5t-246.5 65.5t-95 188.5zM303 246q0 -121 162 -121t162 121v934q0 125 -162 125t-162 -125v-934z" />
<glyph unicode="1" horiz-adv-x="604" d="M123 1298v136h358v-1434h-180v1298h-178z" />
<glyph unicode="2" horiz-adv-x="876" d="M123 0v133q301 578 370.5 742.5t69.5 273.5q0 143 -178 143h-199v142h291q150 0 212.5 -87t62.5 -203t-46.5 -233.5t-182.5 -367.5t-212 -408h441v-135h-629z" />
<glyph unicode="3" horiz-adv-x="921" d="M123 0v135h205q299 0 299 299q0 137 -88 201.5t-209 64.5h-146v136h146q123 0 190.5 64.5t67.5 183t-64.5 166.5t-193.5 48h-207v136h246q190 0 284.5 -87t94.5 -274q0 -102 -38 -187t-96 -124q80 -43 132.5 -129t52.5 -174t-8.5 -141.5t-36 -116t-74.5 -103.5 q-113 -98 -342 -98h-215z" />
<glyph unicode="4" horiz-adv-x="1034" d="M123 379v135l360 920h297v-920h135v-135h-135v-379h-180v379h-477zM303 514h297v784h-14z" />
<glyph unicode="5" horiz-adv-x="968" d="M123 248h180q0 -66 54.5 -96.5t127 -30.5t127 28.5t54.5 96.5v346q0 80 -26 107.5t-112 27.5h-401v707h621v-136h-443v-436h273q141 0 204.5 -61.5t63.5 -196.5v-350q0 -129 -106.5 -198.5t-256 -69.5t-255 66.5t-105.5 195.5z" />
<glyph unicode="6" horiz-adv-x="972" d="M125 256v846q0 158 90 245t252 87h278v-136h-253q-90 0 -139.5 -53t-49.5 -147v-258h277q137 0 201.5 -61.5t64.5 -196.5v-328q0 -129 -106.5 -198.5t-255 -69.5t-254 70.5t-105.5 199.5zM303 248q0 -68 52.5 -97.5t127 -29.5t130 28.5t55.5 96.5v323q0 78 -27 107 t-111 29h-227v-457z" />
<glyph unicode="7" horiz-adv-x="858" d="M123 1298v136h612v-136l-401 -1298h-191l412 1298h-432z" />
<glyph unicode="8" horiz-adv-x="962" d="M125 240v284q0 121 127 201q-102 72 -102 190v265q0 268 333 268q164 0 249 -74t85 -194v-265q0 -117 -106 -190q123 -84 123 -201v-284q0 -117 -90.5 -184.5t-260.5 -67.5q-358 0 -358 252zM305 260q0 -137 174 -137t174 137v240q0 72 -43 114.5t-129 42.5t-131 -44 t-45 -113v-240zM330 1157l2 -219q0 -72 32.5 -103.5t116.5 -31.5q156 0 156 135v219q0 125 -68 146q-31 10 -104.5 10t-104 -39t-30.5 -117z" />
<glyph unicode="9" horiz-adv-x="974" d="M125 879v301q0 129 106.5 198.5t255 69.5t255 -70.5t106.5 -199.5v-928q0 -117 -89 -183.5t-259 -66.5h-273v135h271q172 0 172 139v328h-277q-268 1 -268 277zM305 893q0 -82 26.5 -118t110.5 -36h228v447q0 68 -52.5 97.5t-127 29.5t-130 -29t-55.5 -96v-295z" />
<glyph unicode=":" horiz-adv-x="331" d="M84 0v211h164v-211h-164zM84 852v211h164v-211h-164z" />
<glyph unicode=";" horiz-adv-x="249" d="M0 -252l88 252v211h162v-209l-125 -254h-125zM86 852v211h164v-211h-164z" />
<glyph unicode="&#x3c;" horiz-adv-x="1097" d="M82 457v110l901 477v-153l-717 -379l717 -379v-153z" />
<glyph unicode="=" horiz-adv-x="942" d="M61 463v135h820v-135h-820zM61 807v135h820v-135h-820z" />
<glyph unicode="&#x3e;" horiz-adv-x="1044" d="M82 -20v153l717 379l-717 379v153l901 -477v-110z" />
<glyph unicode="?" horiz-adv-x="1058" d="M256 1298v136h231q166 0 260.5 -83t94.5 -227q0 -160 -117 -280q-49 -51 -98 -101q-115 -119 -115 -258v-129h-164v119q0 90 34 167t82 129t97 101q115 119 115 236q0 190 -227 190h-193zM348 0v184h164v-184h-164z" />
<glyph unicode="@" horiz-adv-x="1302" d="M92 367v696q0 371 371 371h381q199 0 282.5 -90.5t83.5 -280.5v-377q0 -369 -331 -369h-195q-115 0 -194.5 74t-79.5 184v293q0 104 70.5 179t207.5 75h238v-682q70 10 95.5 54.5t25.5 150.5v455q0 199 -166 198h-435q-88 0 -139 -51t-51 -147v-768q0 -96 51 -146.5 t139 -50.5h467v-135h-450q-371 0 -371 367zM573 573q0 -55 41 -94t99 -39h49v559h-51q-96 0 -119 -57q-18 -45 -19 -133v-236z" />
<glyph unicode="A" horiz-adv-x="989" d="M41 0l324 1434h272l311 -1434h-168l-100 422h-373l-92 -422h-174zM338 561h311l-147 737h-15z" />
<glyph unicode="B" horiz-adv-x="995" d="M150 0v1434h348q190 0 284.5 -87t94.5 -274q0 -102 -38 -187t-96 -124q80 -43 132.5 -129t52.5 -174t-8.5 -141.5t-36 -116t-76.5 -103.5q-111 -98 -340 -98h-317zM330 135h127q299 0 299 287q0 145 -88 208.5t-209 63.5h-129v-559zM330 834h129q123 0 190.5 62t67.5 181 q0 221 -258 221h-129v-464z" />
<glyph unicode="C" horiz-adv-x="794" d="M88 371v692q0 182 102.5 276.5t288.5 94.5h275v-136h-275q-94 0 -152.5 -54t-58.5 -144v-766q0 -90 58.5 -144.5t152.5 -54.5h275v-135h-275q-186 0 -288.5 94.5t-102.5 276.5z" />
<glyph unicode="D" horiz-adv-x="983" d="M147 0v1434h357q186 0 288.5 -94.5t102.5 -276.5v-692q0 -182 -102.5 -275.5t-288.5 -95.5h-357zM330 139h174q94 0 152.5 54.5t58.5 144.5v758q0 90 -58.5 144t-152.5 54h-174v-1155z" />
<glyph unicode="E" horiz-adv-x="876" d="M150 0v1434h624v-140h-444v-458h360v-140h-360v-557h465v-139h-645z" />
<glyph unicode="F" horiz-adv-x="794" d="M150 0v1434h604v-140h-424v-491h319v-139h-319v-664h-180z" />
<glyph unicode="G" horiz-adv-x="944" d="M88 371v694q0 180 110.5 274.5t301.5 94.5h301v-138h-322q-94 0 -152.5 -54t-58.5 -144v-764q0 -92 55.5 -145.5t147.5 -53.5h191v563h-185v136h365v-834h-363q-186 0 -288.5 94.5t-102.5 276.5z" />
<glyph unicode="H" horiz-adv-x="1067" d="M150 0v1434h180v-607h407v607h181v-1434h-181v692h-407v-692h-180z" />
<glyph unicode="I" horiz-adv-x="479" d="M150 0v1434h180v-1434h-180z" />
<glyph unicode="J" horiz-adv-x="477" d="M25 0v139h49q135 0 135 150v1145h180v-1153q0 -117 -69.5 -199t-180.5 -82h-114z" />
<glyph unicode="K" horiz-adv-x="991" d="M150 0v1434h174v-627l424 627h178l-418 -639l479 -795h-182l-402 668l-79 -103v-565h-174z" />
<glyph unicode="L" horiz-adv-x="776" d="M150 0v1434h180v-1299h420v-135h-600z" />
<glyph unicode="M" horiz-adv-x="1361" d="M129 0v1434h272l275 -848h14l281 848h262v-1434h-180v1219l-275 -838h-194l-275 840v-1221h-180z" />
<glyph unicode="N" horiz-adv-x="1083" d="M133 0v1434h301l334 -1239v1239h182v-1434h-258l-379 1303v-1303h-180z" />
<glyph unicode="O" horiz-adv-x="960" d="M88 354v725q0 174 100.5 271.5t292 97.5t291.5 -97.5t100 -271.5v-725q0 -174 -100 -271t-291.5 -97t-292 97t-100.5 271zM268 319q0 -94 60.5 -146t150.5 -52t151.5 52t61.5 146v795q0 94 -61.5 146.5t-151.5 52.5t-150.5 -52.5t-60.5 -146.5v-795z" />
<glyph unicode="P" horiz-adv-x="927" d="M150 0v1434h362q375 0 375 -381q0 -199 -107.5 -310.5t-306.5 -111.5h-143v-631h-180zM330 766h131q117 0 181.5 80t64.5 207q0 246 -246 245h-131v-532z" />
<glyph unicode="Q" horiz-adv-x="927" d="M88 350v729q0 176 93 272.5t282.5 96.5t283 -96.5t93.5 -272.5v-729q0 -324 -293 -362v-41q0 -88 23.5 -118t76.5 -30h96v-129h-120q-113 0 -178.5 67.5t-65.5 182.5v68q-291 38 -291 362zM268 315q0 -96 53.5 -147t141.5 -51t142 51t54 147v799q0 96 -54 147.5 t-142 51.5t-141.5 -51.5t-53.5 -147.5v-799z" />
<glyph unicode="R" horiz-adv-x="1009" d="M150 0v1434h378q369 0 369 -381q0 -143 -55.5 -250t-157.5 -148l285 -655h-176l-279 629h-188v-629h-176zM330 764h145q117 0 181.5 81t64.5 208q0 246 -246 245h-145v-534z" />
<glyph unicode="S" horiz-adv-x="800" d="M111 1073q0 164 98 262.5t272 98.5h166v-136h-158q-98 0 -149 -63.5t-51 -137t33.5 -126.5t85 -88t112 -82t111.5 -95.5t85 -130t34 -186.5q0 -193 -110 -291t-300 -98h-215v135h223q117 0 169 69.5t52 162t-33.5 157t-85 102.5t-110.5 83t-110.5 87t-85 113.5 t-33.5 163.5z" />
<glyph unicode="T" horiz-adv-x="835" d="M41 1298v136h754v-136h-287v-1298h-180v1298h-287z" />
<glyph unicode="U" horiz-adv-x="903" d="M88 354v1080h180v-1115q0 -98 48.5 -148t134.5 -50t135 50t49 148v1115h180v-1080q0 -369 -363.5 -369t-363.5 369z" />
<glyph unicode="V" horiz-adv-x="1046" d="M61 1434h179l284 -1270l283 1270h178l-338 -1434h-241z" />
<glyph unicode="W" horiz-adv-x="1585" d="M84 1434h178l244 -1260l190 887h193l192 -887l242 1260h178l-297 -1434h-241l-168 858l-166 -858h-242z" />
<glyph unicode="X" horiz-adv-x="972" d="M61 0l324 754l-283 680h181l204 -494l209 494h181l-297 -680l331 -754h-182l-242 573l-245 -573h-181z" />
<glyph unicode="Y" horiz-adv-x="727" d="M-14 1434h180l205 -678l209 678h180l-305 -865v-569h-181v569z" />
<glyph unicode="Z" horiz-adv-x="720" d="M41 0v135l440 1163h-389v136h588v-134l-451 -1165h449v-135h-637z" />
<glyph unicode="[" horiz-adv-x="573" d="M61 -287v1823h431v-135h-267v-1553h267v-135h-431z" />
<glyph unicode="\" horiz-adv-x="845" d="M43 1434h168l561 -1434h-178z" />
<glyph unicode="]" horiz-adv-x="595" d="M61 -152h267v1553h-267v135h431v-1823h-431v135z" />
<glyph unicode="^" horiz-adv-x="980" d="M41 901l324 533h172l323 -533l-133 -82l-276 434l-277 -434z" />
<glyph unicode="_" horiz-adv-x="616" d="M0 0h614v-135h-614v135z" />
<glyph unicode="`" horiz-adv-x="483" d="M57 1313l105 96l237 -203l-67 -61z" />
<glyph unicode="a" horiz-adv-x="747" d="M70 281v106q0 96 48 161.5t120 92.5l254 94v96q0 49 -30 81t-77 32h-231v121h245q113 0 179.5 -66.5t66.5 -181.5v-817h-305q-113 0 -191.5 80t-78.5 201zM215 258q0 -55 41 -94t98 -39h138v481l-181 -67q-53 -20 -74.5 -55t-21.5 -111v-115z" />
<glyph unicode="b" horiz-adv-x="800" d="M123 0v1434h164v-320l274 -96q72 -25 120 -85.5t48 -148.5v-526q0 -111 -78 -184.5t-190 -73.5h-338zM287 123h139q57 0 98 39t41 96v494q0 78 -21.5 113.5t-74.5 52.5l-182 61v-856z" />
<glyph unicode="c" horiz-adv-x="614" d="M102 250v545q0 129 68 199.5t197 70.5h227v-123h-223q-47 0 -76 -31.5t-29 -81.5v-593q0 -49 30 -81t77 -32h221v-123h-246q-113 0 -179.5 67.5t-66.5 182.5z" />
<glyph unicode="d" horiz-adv-x="833" d="M104 279v509q0 88 48.5 149.5t119.5 84.5l275 96v316h164v-1434h-318q-129 0 -209 76t-80 203zM268 279q0 -74 43 -115t117 -41h119v860l-182 -61q-53 -16 -75 -52t-22 -114v-477z" />
<glyph unicode="e" horiz-adv-x="714" d="M90 250v545q0 133 74 208.5t219 75.5t218 -75.5t73 -208.5v-95q0 -147 -178 -196l-242 -68v-200q0 -49 29.5 -81t76.5 -32h222v-123h-246q-113 0 -179.5 67.5t-66.5 182.5zM254 565q47 14 100.5 27.5t72.5 19.5t43 14.5t28 20.5q12 33 12 70v112q0 127 -127 127 q-57 0 -93 -32.5t-36 -94.5v-264z" />
<glyph unicode="f" horiz-adv-x="514" d="M51 930v135h123v119q0 115 65.5 182.5t178.5 67.5h90v-123h-62q-47 0 -77.5 -33t-30.5 -80v-133h166v-135h-166v-930h-164v930h-123z" />
<glyph unicode="g" horiz-adv-x="790" d="M84 256v551q0 111 79 184.5t191 73.5h334v-1143q0 -115 -62.5 -182.5t-174.5 -67.5h-242v123h211q47 0 74.5 32t27.5 81v90h-170q-113 0 -190.5 73.5t-77.5 184.5zM248 256q0 -57 41 -96t98 -39h137v821h-137q-57 0 -98 -39t-41 -96v-551z" />
<glyph unicode="h" horiz-adv-x="851" d="M123 0v1434h164v-424q33 10 89 26.5t81 24.5q68 18 134 18t101 -51t35 -133v-895h-164v842q0 59 -8 82.5t-32.5 23.5t-235.5 -65v-883h-164z" />
<glyph unicode="i" horiz-adv-x="409" d="M123 0v1065h164v-1065h-164zM123 1239v164h164v-164h-164z" />
<glyph unicode="j" horiz-adv-x="448" d="M10 -205h49q47 0 75 32t28 81v1157h164v-1143q0 -115 -65.5 -182.5t-178.5 -67.5h-72v123zM160 1239v164h164v-164h-164z" />
<glyph unicode="k" horiz-adv-x="784" d="M119 0v1434h164v-803l317 434h154l-303 -434l317 -631h-154l-260 537l-71 -97v-440h-164z" />
<glyph unicode="l" horiz-adv-x="409" d="M125 0v1434h164v-1434h-164z" />
<glyph unicode="m" horiz-adv-x="1269" d="M123 0v1065h127l18 -59q29 8 91.5 26.5t89.5 24.5q80 23 135 22q88 0 123 -78q213 78 301 78q160 0 159 -184v-895h-163v842q0 59 -8.5 82.5t-33 23.5t-233.5 -65v-883h-164v842q0 59 -8 82.5t-32.5 23.5t-237.5 -65v-883h-164z" />
<glyph unicode="n" horiz-adv-x="831" d="M123 0v1065h127l18 -59q29 8 91.5 26.5t89.5 24.5q80 23 144 22.5t99 -51.5t35 -133v-895h-164v842q0 59 -8 82.5t-32.5 23.5t-235.5 -65v-883h-164z" />
<glyph unicode="o" d="M82 260v545q0 129 79 201.5t222 72.5t222 -72.5t79 -201.5v-545q0 -129 -79 -201.5t-222 -72.5t-222 72.5t-79 201.5zM242 260q0 -72 37.5 -109.5t103.5 -37.5t103.5 37.5t37.5 109.5v545q0 72 -37.5 109.5t-103.5 37.5t-103.5 -37.5t-37.5 -109.5v-545z" />
<glyph unicode="p" horiz-adv-x="796" d="M123 -328v1393h332q113 0 191.5 -73.5t78.5 -184.5v-551q0 -111 -78 -183.5t-190 -72.5h-170v-328h-164zM287 121h135q57 0 98 39t41 96v551q0 57 -41 96t-98 39h-135v-821z" />
<glyph unicode="q" horiz-adv-x="811" d="M84 256v551q0 111 79 184.5t191 73.5h334v-1393h-166v328h-170q-113 0 -190.5 72.5t-77.5 183.5zM248 258q0 -57 41 -96t98 -39h137v819h-137q-57 0 -98 -39t-41 -96v-549z" />
<glyph unicode="r" horiz-adv-x="548" d="M123 0v1065h127l18 -76q125 61 172 75.5t78 14.5v-121q-53 0 -231 -86v-872h-164z" />
<glyph unicode="s" horiz-adv-x="614" d="M61 0v123h175q168 0 167 174q0 94 -120 186q-49 37 -101 78q-121 100 -121 254q0 109 73 179.5t196 70.5h178v-123h-148q-145 0 -145 -137q0 -84 121 -172q49 -37 98 -79t84 -110.5t35 -154.5q0 -145 -77 -217t-216 -72h-199z" />
<glyph unicode="t" horiz-adv-x="544" d="M53 942v123h123v309l164 62v-371h164v-123h-164v-706q0 -49 27.5 -81t74.5 -32h62v-123h-84q-113 0 -178.5 67.5t-65.5 182.5v692h-123z" />
<glyph unicode="u" horiz-adv-x="831" d="M102 170v895h164v-842q0 -72 12.5 -89t31 -17t235.5 61v887h164v-1065h-117l-31 70q-31 -8 -82 -27.5t-86 -30t-53 -14.5q-59 -12 -92 -12q-74 0 -110 51t-36 133z" />
<glyph unicode="v" horiz-adv-x="714" d="M31 1065h170l157 -858l156 858h170l-244 -1065h-166z" />
<glyph unicode="w" horiz-adv-x="1038" d="M41 1065h164l119 -893l96 621h209l96 -621l119 893h164l-195 -1065h-168l-121 641l-121 -641h-167z" />
<glyph unicode="x" horiz-adv-x="774" d="M20 0l295 535l-274 530h158l192 -377l195 377h157l-274 -530l295 -535h-172l-201 389l-198 -389h-173z" />
<glyph unicode="y" horiz-adv-x="724" d="M41 1065h170l178 -864l143 864h162l-250 -1188q-43 -205 -237 -205h-90v123h63q55 0 100.5 52.5t45.5 154.5z" />
<glyph unicode="z" horiz-adv-x="638" d="M61 0v123l363 819h-354v123h528v-121l-377 -821h375v-123h-535z" />
<glyph unicode="{" horiz-adv-x="735" d="M102 553v143h41q47 0 80 32t33 79v432q0 133 97.5 225t238.5 92v-143q-74 0 -123 -45t-49 -108v-433q0 -119 -98 -202q98 -84 98 -203v-432q0 -63 49 -108.5t123 -45.5v-143q-141 0 -238.5 92t-97.5 225v432q0 47 -33 79t-80 32h-41z" />
<glyph unicode="|" horiz-adv-x="423" d="M123 0v1536h164v-1536h-164z" />
<glyph unicode="}" horiz-adv-x="827" d="M147 -164q74 0 124.5 45t50.5 109v432q0 119 98 203q-98 84 -98 202v433q0 63 -50.5 108t-124.5 45v143q141 0 239.5 -92t98.5 -225v-432q0 -47 33 -79t80 -32h41v-143h-41q-47 0 -80 -32t-33 -79v-432q0 -133 -98 -225t-240 -92v143z" />
<glyph unicode="~" horiz-adv-x="849" d="M61 582q0 172 70 211q33 18 74 18t212 -54.5t193 -54.5q43 0 49 109h129q0 -172 -69 -211q-33 -18 -77 -18t-213 54t-189 54q-49 0 -50 -108h-129z" />
<glyph unicode="&#xa1;" horiz-adv-x="438" d="M135 0v1094h164v-1094h-164zM137 1221v213h164v-213h-164z" />
<glyph unicode="&#xa2;" horiz-adv-x="860" d="M82 553v340q0 129 67.5 199.5t196.5 70.5h57v271h164v-271h207v-123h-207v-614h207v-123h-207v-303h-164v303h-75q-113 0 -179.5 67.5t-66.5 182.5zM246 539q0 -49 29.5 -81t76.5 -32h51v614h-53q-47 0 -75.5 -31.5t-28.5 -80.5v-389z" />
<glyph unicode="&#xa3;" horiz-adv-x="776" d="M18 768v135h127v281q0 115 65.5 182.5t178.5 67.5h363v-140h-322q-47 0 -77.5 -32.5t-30.5 -79.5v-279h428v-135h-424v-631h424v-137h-605v768h-127z" />
<glyph unicode="&#xa4;" horiz-adv-x="1327" d="M178 190l135 150q-14 35 -14 84v362q0 57 25 103l-142 162l105 86l129 -144q102 68 242.5 68t244.5 -66l133 150l103 -90l-142 -162q27 -49 27 -107v-362q0 -47 -18 -90l143 -156l-113 -96l-123 139q-102 -72 -252.5 -71.5t-252.5 73.5l-119 -133zM463 432 q0 -68 63.5 -107.5t135 -39.5t135 40t63.5 107v346q0 68 -63.5 108t-135 40t-135 -40t-63.5 -108v-346z" />
<glyph unicode="&#xa5;" horiz-adv-x="933" d="M39 475v135h340v193h-340v135h340l-326 496h162l246 -379l246 379h161l-325 -496h340v-135h-340v-193h340v-135h-340v-475h-164v475h-340z" />
<glyph unicode="&#xa6;" horiz-adv-x="409" d="M123 0v614h164v-614h-164zM123 922v614h164v-614h-164z" />
<glyph unicode="&#xa7;" horiz-adv-x="937" d="M23 813q0 133 106 205q-66 66 -66 171t73 175t196 70h260v-121h-230q-145 0 -145 -137q0 -90 156 -164q66 -33 130 -73t109 -110.5t45 -184.5t-84 -191q43 -74 43 -166q0 -141 -94 -215t-239 -74h-199v123h174q92 0 150.5 51t58.5 129t-46 133t-111.5 86t-130 61.5 t-110.5 88t-46 143.5zM176 803q0 -53 39 -89t127 -82t125 -71q41 45 41 102.5t-17.5 98.5t-56.5 74q-53 43 -172 98q-86 -22 -86 -131z" />
<glyph unicode="&#xa8;" horiz-adv-x="681" d="M133 1225v166h164v-166h-164zM430 1225v166h164v-166h-164z" />
<glyph unicode="&#xa9;" horiz-adv-x="1318" d="M92 281v893q0 74 60.5 131t152.5 85.5t182.5 43t172 14.5t172 -14.5t182.5 -43t152.5 -86t60.5 -130.5v-893q0 -98 -105.5 -169t-228.5 -98.5t-233.5 -27.5t-233.5 27.5t-228.5 98.5t-105.5 169zM256 283q0 -49 49 -84t122 -50.5t130 -21.5t100 -6t100.5 6t132.5 21.5 t124 50t49 84.5v893q0 63 -147.5 93.5t-223.5 30.5t-134 -7t-131 -23.5t-122 -51t-49 -83.5v-852zM406 559v289q0 129 67.5 199.5t196.5 70.5h215v-110h-236q-47 0 -75.5 -32t-28.5 -81v-363q0 -49 29.5 -80.5t76.5 -31.5h234v-111h-234q-113 0 -179 67.5t-66 182.5z" />
<glyph unicode="&#xaa;" horiz-adv-x="747" d="M186 950v88q0 102 101 140l133 57v37q0 29 -18.5 48t-47.5 19h-118v95h155q68 0 108 -41t40 -109v-489h-191q-68 0 -115 43.5t-47 111.5zM299 969q0 -33 24.5 -56.5t59.5 -23.5h37v244l-70 -31q-51 -20 -51 -111v-22z" />
<glyph unicode="&#xab;" horiz-adv-x="1028" d="M61 512l287 410h178l-286 -410l286 -410h-178zM430 512l287 410h178l-287 -410l287 -410h-178z" />
<glyph unicode="&#xac;" horiz-adv-x="1157" d="M82 602v135h983v-430h-164v295h-819z" />
<glyph unicode="&#xad;" horiz-adv-x="808" d="M61 633v135h639v-135h-639z" />
<glyph unicode="&#xae;" horiz-adv-x="1318" d="M92 285v889q0 74 60.5 131t152.5 85.5t182.5 43t172 14.5t172 -14.5t182.5 -43t152.5 -86t60.5 -130.5v-889q0 -98 -105.5 -169t-228.5 -98.5t-233.5 -27.5t-233.5 27.5t-228.5 98.5t-105.5 169zM256 287q0 -49 49 -84t122 -50.5t130 -21.5t100 -6t100.5 6t132.5 21.5 t124 50.5t49 84v889q0 63 -147.5 93.5t-223.5 30.5t-134 -7t-131 -23.5t-122 -51t-49 -83.5v-848zM426 309v807h227q106 0 167 -55t61 -146.5t-40 -152t-100 -84.5l160 -369h-125l-155 355h-58v-355h-137zM565 762h70q63 0 100 42t37 97t-36 86t-101 31h-70v-256z" />
<glyph unicode="&#xaf;" horiz-adv-x="827" d="M135 1311v123h486v-123h-486z" />
<glyph unicode="&#xb0;" d="M201 932v375q0 72 64.5 106.5t160.5 34.5t160.5 -35t64.5 -106v-375q0 -74 -66.5 -114t-158.5 -40t-158.5 40t-66.5 114zM309 938q0 -72 117 -72t117 72v348q0 74 -117 74t-117 -74v-348z" />
<glyph unicode="&#xb1;" horiz-adv-x="942" d="M61 203v135h820v-135h-820zM61 766v135h332v307h164v-307h336v-135h-336v-336h-164v336h-332z" />
<glyph unicode="&#xb2;" horiz-adv-x="452" d="M63 797v92q35 61 80 143l66 113q45 80 47 96q6 25 6 45q0 43 -80 43h-90v105h172q68 0 95.5 -39t27.5 -89.5t-22.5 -98.5t-79 -141t-97.5 -177h199v-92h-324z" />
<glyph unicode="&#xb3;" horiz-adv-x="464" d="M63 797v94h84q45 0 70 6t44.5 31.5t19.5 81t-32 75t-112 19.5h-65v92h96q102 0 102 70q0 37 -24.5 50t-77.5 13h-105v105h136q90 0 141 -41t51 -101q0 -106 -65 -143q74 -43 73.5 -136t-46.5 -154.5t-163 -61.5h-127z" />
<glyph unicode="&#xb4;" horiz-adv-x="620" d="M160 1206l237 203l105 -96l-275 -168z" />
<glyph unicode="&#xb6;" horiz-adv-x="1316" d="M127 1065v147q0 100 68.5 161t171.5 61h694v-1434h-164v1290h-184v-1290h-164v801l-244 67q-178 50 -178 197zM276 1085q0 -41 17 -69q8 -16 54 -28.5t98.5 -26t101.5 -27.5v268q0 113 -135.5 113t-135.5 -113v-117z" />
<glyph unicode="&#xb7;" horiz-adv-x="280" d="M70 520v211h163v-211h-163z" />
<glyph unicode="&#xb8;" horiz-adv-x="659" d="M184 -231h164q92 0 92 44t-69 44h-107l35 143h127l-14 -66q74 0 112.5 -26.5t38.5 -95.5q0 -139 -160 -140h-219v97z" />
<glyph unicode="&#xb9;" horiz-adv-x="344" d="M63 1325v109h216v-637h-119v528h-97z" />
<glyph unicode="&#xba;" d="M203 944v340q0 76 47 120t133 44t133 -44t47 -120v-340q0 -76 -47 -120t-133 -44t-133 44t-47 120zM307 956q0 -88 77 -88t77 88v316q0 88 -77 88t-77 -88v-316z" />
<glyph unicode="&#xbb;" horiz-adv-x="1028" d="M133 100l287 410l-287 410h178l287 -410l-287 -410h-178zM502 100l286 410l-286 410h178l287 -410l-287 -410h-178z" />
<glyph unicode="&#xbc;" horiz-adv-x="1126" d="M66 0l751 1434h158l-752 -1434h-157zM70 1325v109h215v-637h-119v528h-96zM559 127v106l207 406h213v-406h82v-106h-82v-127h-121v127h-299zM690 233h166v304h-8z" />
<glyph unicode="&#xbd;" horiz-adv-x="1085" d="M66 0l751 1434h158l-752 -1434h-157zM70 1325v109h215v-637h-119v528h-96zM696 0v92q35 61 80 144l64 112q47 80 49 96q6 25 6 45q0 43 -80 43h-90v105h172q68 0 95.5 -39t27.5 -89t-22.5 -98.5t-79 -141.5t-97.5 -177h199v-92h-324z" />
<glyph unicode="&#xbe;" horiz-adv-x="1128" d="M66 795v94h84q45 0 69.5 6t44 31.5t19.5 81t-32 75t-112 19.5h-65v92h96q102 0 102 70q0 37 -24.5 50t-77.5 13h-104v105h135q90 0 141 -41t51 -101q0 -106 -65 -143q74 -43 73.5 -136t-46.5 -154.5t-162 -61.5h-127zM72 0l751 1434h158l-752 -1434h-157zM561 127v106 l207 406h213v-406h82v-106h-82v-127h-121v127h-299zM692 233h166v304h-8z" />
<glyph unicode="&#xbf;" horiz-adv-x="993" d="M166 309q0 158 117 281q47 51 96 100q117 117 117 258v129h163v-119q0 -90 -33.5 -166.5t-80.5 -129t-94 -101.5q-115 -119 -115 -235q0 -190 227 -191h193v-135h-236q-166 0 -260 83t-94 226zM496 1249v185h163v-185h-163z" />
<glyph unicode="&#xc0;" horiz-adv-x="989" d="M41 0l324 1434h272l311 -1434h-168l-100 422h-373l-92 -422h-174zM338 561h311l-147 737h-15zM227 1682l105 96l237 -203l-67 -61z" />
<glyph unicode="&#xc1;" horiz-adv-x="989" d="M41 0l324 1434h272l311 -1434h-168l-100 422h-373l-92 -422h-174zM338 561h311l-147 737h-15zM416 1575l237 203l105 -96l-275 -168z" />
<glyph unicode="&#xc2;" horiz-adv-x="989" d="M41 0l324 1434h272l311 -1434h-168l-100 422h-373l-92 -422h-174zM270 1575l238 203l237 -203l-67 -62l-170 105l-170 -105zM338 561h311l-147 737h-15z" />
<glyph unicode="&#xc3;" horiz-adv-x="989" d="M41 0l324 1434h272l311 -1434h-168l-100 422h-373l-92 -422h-174zM188 1556q2 92 35 140.5t119 48.5q23 0 115 -34t112.5 -34t30.5 9.5t12 18.5t5.5 30.5t5.5 29.5h129q0 -162 -70 -192q-33 -16 -71 -16.5t-130 33.5t-110.5 34t-26.5 -2t-13 -10t-6 -13.5t-3.5 -20.5 t-4.5 -22h-129zM338 561h311l-147 737h-15z" />
<glyph unicode="&#xc4;" horiz-adv-x="989" d="M41 0l324 1434h272l311 -1434h-168l-100 422h-373l-92 -422h-174zM260 1593v166h164v-166h-164zM338 561h311l-147 737h-15zM557 1593v166h164v-166h-164z" />
<glyph unicode="&#xc5;" horiz-adv-x="989" d="M41 0l324 1434h272l311 -1434h-168l-100 422h-373l-92 -422h-174zM338 561h311l-147 737h-15zM352 1669v49q0 51 41 80t104.5 29t104.5 -29t41 -80v-49q0 -53 -41 -85t-103.5 -32t-104.5 32t-42 85zM438 1675q0 -51 59.5 -51t59.5 51v29q0 53 -59.5 53t-59.5 -53v-29z " />
<glyph unicode="&#xc6;" horiz-adv-x="1320" d="M41 0l354 1434h824v-140h-445v-458h361v-140h-361v-557h465v-139h-645v422h-266l-95 -422h-192zM360 561h234v737h-76z" />
<glyph unicode="&#xc7;" horiz-adv-x="794" d="M88 371v692q0 182 102.5 276.5t288.5 94.5h275v-136h-275q-94 0 -152.5 -54t-58.5 -144v-766q0 -90 58.5 -144.5t152.5 -54.5h275v-135h-275q-186 0 -288.5 94.5t-102.5 276.5zM317 -231h164q92 0 92 44t-69 44h-107l43 166h127l-22 -89q74 0 112.5 -26.5t38.5 -95.5 q0 -139 -159 -140h-220v97z" />
<glyph unicode="&#xc8;" horiz-adv-x="876" d="M150 0v1434h624v-140h-444v-458h360v-140h-360v-557h465v-139h-645zM215 1682l105 96l237 -203l-67 -61z" />
<glyph unicode="&#xc9;" horiz-adv-x="876" d="M150 0v1434h624v-140h-444v-458h360v-140h-360v-557h465v-139h-645zM305 1575l237 203l105 -96l-275 -168z" />
<glyph unicode="&#xca;" horiz-adv-x="876" d="M150 0v1434h624v-140h-444v-458h360v-140h-360v-557h465v-139h-645zM203 1575l237 203l238 -203l-68 -62l-170 105l-170 -105z" />
<glyph unicode="&#xcb;" horiz-adv-x="876" d="M150 0v1434h624v-140h-444v-458h360v-140h-360v-557h465v-139h-645zM211 1593v166h164v-166h-164zM508 1593v166h164v-166h-164z" />
<glyph unicode="&#xcc;" horiz-adv-x="479" d="M-23 1681l105 97l237 -203l-67 -62zM150 0v1434h180v-1434h-180z" />
<glyph unicode="&#xcd;" horiz-adv-x="479" d="M150 0v1434h180v-1434h-180zM164 1575l237 203l105 -97l-275 -168z" />
<glyph unicode="&#xce;" horiz-adv-x="479" d="M2 1575l238 203l237 -203l-67 -62l-170 105l-170 -105zM150 0v1434h180v-1434h-180z" />
<glyph unicode="&#xcf;" horiz-adv-x="479" d="M150 0v1434h180v-1434h-180zM10 1594v166h164v-166h-164zM307 1594v166h164v-166h-164z" />
<glyph unicode="&#xd0;" horiz-adv-x="1064" d="M90 664v135h141v635h355q186 0 288.5 -94.5t102.5 -276.5v-692q0 -182 -102.5 -276.5t-288.5 -94.5h-355v664h-141zM412 139h174q94 0 152.5 54.5t58.5 144.5v758q0 90 -58.5 144t-152.5 54h-174v-495h221v-135h-221v-525z" />
<glyph unicode="&#xd1;" horiz-adv-x="1083" d="M133 0v1434h301l334 -1239v1239h182v-1434h-258l-379 1303v-1303h-180zM287 1556q2 92 34.5 140.5t118.5 48.5q23 0 115 -34t112.5 -34t31 9.5t12.5 18.5t5 30.5t5 29.5h129q0 -162 -70 -192q-33 -16 -70.5 -16.5t-130 33.5t-110.5 34t-26.5 -2t-13.5 -10t-6 -13.5 t-3 -20.5t-4 -22h-129z" />
<glyph unicode="&#xd2;" horiz-adv-x="960" d="M88 354v725q0 174 100.5 271.5t292 97.5t291.5 -97.5t100 -271.5v-725q0 -174 -100 -271t-291.5 -97t-292 97t-100.5 271zM268 319q0 -94 60.5 -146t150.5 -52t151.5 52t61.5 146v795q0 94 -61.5 146.5t-151.5 52.5t-150.5 -52.5t-60.5 -146.5v-795zM301 1682l105 96 l237 -203l-67 -61z" />
<glyph unicode="&#xd3;" horiz-adv-x="960" d="M88 354v725q0 174 100.5 271.5t292 97.5t291.5 -97.5t100 -271.5v-725q0 -174 -100 -271t-291.5 -97t-292 97t-100.5 271zM268 319q0 -94 60.5 -146t150.5 -52t151.5 52t61.5 146v795q0 94 -61.5 146.5t-151.5 52.5t-150.5 -52.5t-60.5 -146.5v-795zM387 1575l238 203 l104 -97l-274 -168z" />
<glyph unicode="&#xd4;" horiz-adv-x="960" d="M88 354v725q0 174 100.5 271.5t292 97.5t291.5 -97.5t100 -271.5v-725q0 -174 -100 -271t-291.5 -97t-292 97t-100.5 271zM233 1575l238 203l238 -203l-68 -62l-170 105l-170 -105zM268 319q0 -94 60.5 -146t150.5 -52t151.5 52t61.5 146v795q0 94 -61.5 146.5 t-151.5 52.5t-150.5 -52.5t-60.5 -146.5v-795z" />
<glyph unicode="&#xd5;" horiz-adv-x="960" d="M88 354v725q0 174 100.5 271.5t292 97.5t291.5 -97.5t100 -271.5v-725q0 -174 -100 -271t-291.5 -97t-292 97t-100.5 271zM190 1556q2 92 35 140.5t119 48.5q23 0 115 -34t112.5 -34t30.5 9.5t12 18.5t5.5 30.5t5.5 29.5h129q0 -162 -70 -192q-33 -16 -71 -16.5 t-130 33.5t-110.5 34t-26.5 -2t-13 -10t-6 -13.5t-3 -20.5t-5 -22h-129zM268 319q0 -94 60.5 -146t150.5 -52t151.5 52t61.5 146v795q0 94 -61.5 146.5t-151.5 52.5t-150.5 -52.5t-60.5 -146.5v-795z" />
<glyph unicode="&#xd6;" horiz-adv-x="960" d="M88 354v725q0 174 100.5 271.5t292 97.5t291.5 -97.5t100 -271.5v-725q0 -174 -100 -271t-291.5 -97t-292 97t-100.5 271zM242 1593v166h164v-166h-164zM268 319q0 -94 60.5 -146t150.5 -52t151.5 52t61.5 146v795q0 94 -61.5 146.5t-151.5 52.5t-150.5 -52.5 t-60.5 -146.5v-795zM539 1593v166h163v-166h-163z" />
<glyph unicode="&#xd7;" horiz-adv-x="966" d="M94 416l295 295l-274 274l90 96l276 -278l279 278l96 -90l-281 -280l295 -295l-90 -97l-299 297l-291 -290z" />
<glyph unicode="&#xd8;" horiz-adv-x="960" d="M31 61l80 146q-23 59 -23 147v725q0 174 100.5 271.5t277.5 97.5t277 -74l43 78l138 -80l-76 -139q25 -68 24 -154v-725q0 -174 -100 -271t-281.5 -97t-279.5 75l-43 -77zM260 440l412 783q-57 98 -193 98q-94 0 -156.5 -53.5t-62.5 -153.5v-674zM283 217 q53 -104 196 -104q94 0 157.5 53t63.5 153v687z" />
<glyph unicode="&#xd9;" horiz-adv-x="903" d="M88 354v1080h180v-1115q0 -98 48.5 -148t134.5 -50t135 50t49 148v1115h180v-1080q0 -369 -363.5 -369t-363.5 369zM196 1682l105 96l237 -203l-67 -61z" />
<glyph unicode="&#xda;" horiz-adv-x="903" d="M88 354v1080h180v-1115q0 -98 48.5 -148t134.5 -50t135 50t49 148v1115h180v-1080q0 -369 -363.5 -369t-363.5 369zM348 1575l238 203l104 -97l-274 -168z" />
<glyph unicode="&#xdb;" horiz-adv-x="903" d="M88 354v1080h180v-1115q0 -98 48.5 -148t134.5 -50t135 50t49 148v1115h180v-1080q0 -369 -363.5 -369t-363.5 369zM213 1575l238 203l237 -203l-67 -62l-170 105l-170 -105z" />
<glyph unicode="&#xdc;" horiz-adv-x="903" d="M88 354v1080h180v-1115q0 -98 48.5 -148t134.5 -50t135 50t49 148v1115h180v-1080q0 -369 -363.5 -369t-363.5 369zM221 1593v166h164v-166h-164zM518 1593v166h164v-166h-164z" />
<glyph unicode="&#xdd;" horiz-adv-x="727" d="M-14 1434h180l205 -678l209 678h180l-305 -865v-569h-181v569zM320 1575l237 203l105 -96l-275 -168z" />
<glyph unicode="&#xde;" horiz-adv-x="927" d="M150 0v1434h180v-240h225q141 0 236.5 -101.5t95.5 -258.5v-240q0 -158 -94.5 -259.5t-235.5 -101.5h-227v-233h-180zM330 369h194q74 0 127.5 63.5t53.5 161.5v240q0 98 -53.5 161.5t-127.5 63.5h-194v-690z" />
<glyph unicode="&#xdf;" horiz-adv-x="886" d="M125 0v1079q0 174 90 271.5t255 97.5t253 -94t88 -254q0 -66 -35 -128.5t-76 -101.5q-113 -104 -112 -163q0 -57 84 -134q35 -33 69 -69q84 -92 84 -217q0 -287 -293 -287h-137v123h107q168 0 168 184q0 76 -123 178q-47 39 -85 100.5t-38 120t35 108.5t77 86t76.5 95.5 t34.5 136t-47 129t-125 52.5t-132 -48t-54 -143v-1122h-164z" />
<glyph unicode="&#xe0;" horiz-adv-x="747" d="M70 281v106q0 96 48 161.5t120 92.5l254 94v96q0 49 -30 81t-77 32h-231v121h245q113 0 179.5 -66.5t66.5 -181.5v-817h-305q-113 0 -191.5 80t-78.5 201zM127 1313l104 96l238 -203l-68 -61zM215 258q0 -55 41 -94t98 -39h138v481l-181 -67q-53 -20 -74.5 -55 t-21.5 -111v-115z" />
<glyph unicode="&#xe1;" horiz-adv-x="747" d="M70 281v106q0 96 48 161.5t120 92.5l254 94v96q0 49 -30 81t-77 32h-231v121h245q113 0 179.5 -66.5t66.5 -181.5v-817h-305q-113 0 -191.5 80t-78.5 201zM215 258q0 -55 41 -94t98 -39h138v481l-181 -67q-53 -20 -74.5 -55t-21.5 -111v-115zM252 1206l237 203l105 -96 l-275 -168z" />
<glyph unicode="&#xe2;" horiz-adv-x="747" d="M70 281v106q0 96 48 161.5t120 92.5l254 94v96q0 49 -30 81t-77 32h-231v121h245q113 0 179.5 -66.5t66.5 -181.5v-817h-305q-113 0 -191.5 80t-78.5 201zM170 1257l233 179l234 -179l-100 -77l-134 106l-133 -106zM215 258q0 -55 41 -94t98 -39h138v481l-181 -67 q-53 -20 -74.5 -55t-21.5 -111v-115z" />
<glyph unicode="&#xe3;" horiz-adv-x="747" d="M70 281v106q0 96 48 161.5t120 92.5l254 94v96q0 49 -30 81t-77 32h-231v121h245q113 0 179.5 -66.5t66.5 -181.5v-817h-305q-113 0 -191.5 80t-78.5 201zM76 1167q2 92 34.5 140.5t118.5 48.5q23 0 135.5 -34t133 -34t31 9.5t12.5 18.5t5 30.5t5 29.5h129 q0 -162 -70 -192q-33 -16 -70.5 -16.5t-150.5 33.5t-131 34t-26.5 -2t-13.5 -10.5t-6 -13.5t-3 -20t-4 -22h-129zM215 258q0 -55 41 -94t98 -39h138v481l-181 -67q-53 -20 -74.5 -55t-21.5 -111v-115z" />
<glyph unicode="&#xe4;" horiz-adv-x="747" d="M70 281v106q0 96 48 161.5t120 92.5l254 94v96q0 49 -30 81t-77 32h-231v121h245q113 0 179.5 -66.5t66.5 -181.5v-817h-305q-113 0 -191.5 80t-78.5 201zM154 1227v164h163v-164h-163zM215 258q0 -55 41 -94t98 -39h138v481l-181 -67q-53 -20 -74.5 -55t-21.5 -111v-115 zM451 1227v164h163v-164h-163z" />
<glyph unicode="&#xe5;" horiz-adv-x="747" d="M70 281v106q0 96 48 161.5t120 92.5l254 94v96q0 49 -30 81t-77 32h-231v121h245q113 0 179.5 -66.5t66.5 -181.5v-817h-305q-113 0 -191.5 80t-78.5 201zM215 258q0 -55 41 -94t98 -39h138v481l-181 -67q-53 -20 -74.5 -55t-21.5 -111v-115zM252 1260v49q0 51 41 79.5 t104.5 28.5t104.5 -28.5t41 -79.5v-49q0 -53 -41 -85t-103.5 -32t-104.5 32t-42 85zM338 1266q0 -51 59.5 -51.5t59.5 51.5v28q0 53 -59.5 53.5t-59.5 -53.5v-28z" />
<glyph unicode="&#xe6;" horiz-adv-x="1320" d="M154 260v148q0 88 48 147t120 86l253 94v96q0 49 -29.5 81t-76.5 32h-233v121h245q98 0 150 -37q16 -10 45 -37q68 74 168 74h106q104 0 172 -59.5t68 -157.5v-148q0 -147 -178 -196l-242 -68v-200q0 -49 29.5 -81t77.5 -32h223v-123h-236q-119 0 -190 76 q-70 -76 -193 -76h-57q-113 0 -191.5 74.5t-78.5 185.5zM303 258q0 -57 41 -96t98 -39h27q47 0 76.5 31.5t29.5 81.5v362l-176 -68q-53 -20 -74.5 -55t-21.5 -110v-107zM770 551q49 14 101.5 27.5t75 19.5t47 14.5t30.5 18.5q16 31 16 71v136q0 113 -135 112.5t-135 -112.5 v-287z" />
<glyph unicode="&#xe7;" horiz-adv-x="614" d="M102 250v545q0 129 68 199.5t197 70.5h227v-123h-223q-47 0 -76 -31.5t-29 -81.5v-593q0 -49 30 -81t77 -32h221v-123h-246q-113 0 -179.5 67.5t-66.5 182.5zM102 250q0 -115 67 -182.5t179 -67.5h246v123h-221q-47 0 -77 31.5t-30 81.5v593q0 49 29 81t76 32h223v123 h-227q-129 0 -197 -70.5t-68 -199.5v-545zM225 -231h164q92 0 92 44t-69 44h-107l35 143h127l-14 -66q74 0 112.5 -26.5t38.5 -95.5q0 -139 -160 -140h-219v97z" />
<glyph unicode="&#xe8;" horiz-adv-x="714" d="M90 250v545q0 133 74 208.5t219 75.5t218 -75.5t73 -208.5v-95q0 -147 -178 -196l-242 -68v-200q0 -49 29.5 -81t76.5 -32h222v-123h-246q-113 0 -179.5 67.5t-66.5 182.5zM160 1292l86 99l246 -183l-58 -63zM254 565q47 14 142.5 38t101.5 44q12 33 12 70v112 q0 127 -127 127q-57 0 -93 -32.5t-36 -94.5v-264z" />
<glyph unicode="&#xe9;" horiz-adv-x="714" d="M90 250v545q0 133 74 208.5t219 75.5t218 -75.5t73 -208.5v-95q0 -147 -178 -196l-242 -68v-200q0 -49 29.5 -81t76.5 -32h222v-123h-246q-113 0 -179.5 67.5t-66.5 182.5zM254 565q47 14 100.5 27.5t72.5 19.5t43 14.5t28 20.5q12 33 12 70v112q0 127 -127 127 q-57 0 -93 -32.5t-36 -94.5v-264zM281 1206l237 203l105 -96l-275 -168z" />
<glyph unicode="&#xea;" horiz-adv-x="714" d="M90 250v545q0 133 74 208.5t219 75.5t218 -75.5t73 -208.5v-95q0 -147 -178 -196l-242 -68v-200q0 -49 29.5 -81t76.5 -32h222v-123h-246q-113 0 -179.5 67.5t-66.5 182.5zM158 1257l233 179l234 -179l-101 -77l-133 106l-133 -106zM254 565q47 14 142.5 38t101.5 44 q12 33 12 70v112q0 127 -127 127q-57 0 -93 -32.5t-36 -94.5v-264z" />
<glyph unicode="&#xeb;" horiz-adv-x="714" d="M90 250v545q0 133 74 208.5t219 75.5t218 -75.5t73 -208.5v-95q0 -147 -178 -196l-242 -68v-200q0 -49 29.5 -81t76.5 -32h222v-123h-246q-113 0 -179.5 67.5t-66.5 182.5zM152 1227v164h163v-164h-163zM254 565q47 14 142.5 38t101.5 44q12 33 12 70v112q0 127 -127 127 q-57 0 -93 -32.5t-36 -94.5v-264zM449 1227v164h163v-164h-163z" />
<glyph unicode="&#xec;" horiz-adv-x="409" d="M-61 1313l104 96l238 -203l-68 -61zM123 0v1065h164v-1065h-164z" />
<glyph unicode="&#xed;" horiz-adv-x="409" d="M100 1206l238 203l104 -96l-274 -168zM123 0v1065h164v-1065h-164z" />
<glyph unicode="&#xee;" horiz-adv-x="409" d="M-20 1257l233 179l233 -179l-100 -77l-133 106l-133 -106zM123 0v1065h164v-1065h-164z" />
<glyph unicode="&#xef;" horiz-adv-x="409" d="M-31 1227v164h164v-164h-164zM123 0v1065h164v-1065h-164zM266 1227v164h164v-164h-164z" />
<glyph unicode="&#xf0;" horiz-adv-x="974" d="M127 254v334q0 276 266 276h293q0 211 -120 335t-339 124v123q309 0 466 -173t157 -444v-573q0 -129 -106.5 -199.5t-255 -70.5t-255 69.5t-106.5 198.5zM291 246q0 -66 62.5 -95.5t139 -29.5t135 29.5t58.5 97.5v479h-258q-84 0 -110.5 -36t-26.5 -118v-327z" />
<glyph unicode="&#xf1;" horiz-adv-x="831" d="M123 0v1065h127l18 -59q29 8 91.5 26.5t89.5 24.5q80 23 144 22.5t99 -51.5t35 -133v-895h-164v842q0 59 -8 82.5t-32.5 23.5t-235.5 -65v-883h-164zM145 1188q2 92 35 140t119 48q23 0 115 -33.5t112.5 -33.5t30.5 9t12 18.5t5.5 31t5.5 29.5h129q0 -162 -70 -193 q-33 -16 -71 -16t-130 33.5t-110.5 33.5t-26.5 -2t-13 -10t-6 -13t-3.5 -20.5t-4.5 -21.5h-129z" />
<glyph unicode="&#xf2;" d="M82 260v545q0 129 79 201.5t222 72.5t222 -72.5t79 -201.5v-545q0 -129 -79 -201.5t-222 -72.5t-222 72.5t-79 201.5zM115 1313l104 96l238 -203l-68 -61zM242 260q0 -72 37.5 -109.5t103.5 -37.5t103.5 37.5t37.5 109.5v545q0 72 -37.5 109.5t-103.5 37.5t-103.5 -37.5 t-37.5 -109.5v-545z" />
<glyph unicode="&#xf3;" d="M82 260v545q0 129 79 201.5t222 72.5t222 -72.5t79 -201.5v-545q0 -129 -79 -201.5t-222 -72.5t-222 72.5t-79 201.5zM242 260q0 -72 37.5 -109.5t103.5 -37.5t103.5 37.5t37.5 109.5v545q0 72 -37.5 109.5t-103.5 37.5t-103.5 -37.5t-37.5 -109.5v-545zM317 1206 l238 203l104 -96l-274 -168z" />
<glyph unicode="&#xf4;" d="M82 260v545q0 129 79 201.5t222 72.5t222 -72.5t79 -201.5v-545q0 -129 -79 -201.5t-222 -72.5t-222 72.5t-79 201.5zM150 1257l233 179l233 -179l-100 -77l-133 106l-133 -106zM242 260q0 -72 37.5 -109.5t103.5 -37.5t103.5 37.5t37.5 109.5v545q0 72 -37.5 109.5 t-103.5 37.5t-103.5 -37.5t-37.5 -109.5v-545z" />
<glyph unicode="&#xf5;" d="M82 260v545q0 129 79 201.5t222 72.5t222 -72.5t79 -201.5v-545q0 -129 -79 -201.5t-222 -72.5t-222 72.5t-79 201.5zM94 1167q2 92 35 140.5t119 48.5q23 0 135.5 -34t133 -34t30.5 9.5t12 18.5t5 30.5t5 29.5h129q0 -162 -69 -192q-33 -16 -71 -16.5t-150.5 33.5 t-131 34t-26.5 -2t-13.5 -10.5t-6.5 -13.5t-3 -20t-4 -22h-129zM242 260q0 -72 37.5 -109.5t103.5 -37.5t103.5 37.5t37.5 109.5v545q0 72 -37.5 109.5t-103.5 37.5t-103.5 -37.5t-37.5 -109.5v-545z" />
<glyph unicode="&#xf6;" d="M82 260v545q0 129 79 201.5t222 72.5t222 -72.5t79 -201.5v-545q0 -129 -79 -201.5t-222 -72.5t-222 72.5t-79 201.5zM147 1227v164h164v-164h-164zM242 260q0 -72 37.5 -109.5t103.5 -37.5t103.5 37.5t37.5 109.5v545q0 72 -37.5 109.5t-103.5 37.5t-103.5 -37.5 t-37.5 -109.5v-545zM444 1227v164h164v-164h-164z" />
<glyph unicode="&#xf7;" horiz-adv-x="942" d="M61 627v135h820v-135h-820zM391 209v164h164v-164h-164zM391 987v164h164v-164h-164z" />
<glyph unicode="&#xf8;" d="M-61 131l143 160v516q0 129 79 201.5t222 72.5q207 0 274 -145l72 82l107 -74l-152 -170v-514q0 -129 -79 -201.5t-222 -72.5q-207 0 -274 143l-64 -72zM242 260q0 -72 37.5 -109.5t103.5 -37.5t103.5 37.5t37.5 109.5v334l-282 -318v-16zM242 471l282 317v19 q0 72 -37.5 109.5t-103.5 37.5t-103.5 -37.5t-37.5 -109.5v-336z" />
<glyph unicode="&#xf9;" horiz-adv-x="831" d="M102 170v895h164v-842q0 -72 12.5 -89t31 -17t235.5 61v887h164v-1065h-117l-31 70q-31 -8 -82 -27.5t-86 -30t-53 -14.5q-59 -12 -92 -12q-74 0 -110 51t-36 133zM139 1313l105 96l237 -203l-67 -61z" />
<glyph unicode="&#xfa;" horiz-adv-x="831" d="M102 170v895h164v-842q0 -72 12.5 -89t31 -17t235.5 61v887h164v-1065h-117l-31 70q-31 -8 -82 -27.5t-86 -30t-53 -14.5q-59 -12 -92 -12q-74 0 -110 51t-36 133zM324 1206l237 203l105 -96l-275 -168z" />
<glyph unicode="&#xfb;" horiz-adv-x="831" d="M102 170v895h164v-842q0 -72 12.5 -89t31 -17t235.5 61v887h164v-1065h-117l-31 70q-31 -8 -82 -27.5t-86 -30t-53 -14.5q-59 -12 -92 -12q-74 0 -110 51t-36 133zM139 1257l234 179l233 -179l-100 -77l-133 106l-133 -106z" />
<glyph unicode="&#xfc;" horiz-adv-x="831" d="M102 170v895h164v-842q0 -72 12.5 -89t31 -17t235.5 61v887h164v-1065h-117l-31 70q-31 -8 -82 -27.5t-86 -30t-53 -14.5q-59 -12 -92 -12q-74 0 -110 51t-36 133zM174 1227v164h164v-164h-164zM471 1227v164h164v-164h-164z" />
<glyph unicode="&#xfd;" horiz-adv-x="958" d="M131 1065h170l178 -864l144 864h161l-249 -1188q-43 -205 -238 -205h-90v123h63q55 0 100.5 52.5t45.5 154.5zM410 1206l237 203l105 -96l-275 -168z" />
<glyph unicode="&#xfe;" horiz-adv-x="798" d="M123 -328v1762h164v-320l272 -96q72 -25 120 -85.5t48 -148.5v-526q0 -111 -78 -184.5t-190 -73.5h-172v-328h-164zM287 123h139q57 0 98 39t41 96v494q0 78 -21.5 113.5t-74.5 52.5l-182 61v-856z" />
<glyph unicode="&#xff;" horiz-adv-x="739" d="M41 1065h170l178 -864l143 864h162l-250 -1188q-43 -205 -237 -205h-90v123h63q55 0 100.5 52.5t45.5 154.5zM133 1225v166h164v-166h-164zM430 1225v166h164v-166h-164z" />
<glyph unicode="&#x152;" horiz-adv-x="1419" d="M88 354v729q0 174 100.5 271.5t290.5 97.5q102 0 213 -18h625v-140h-445v-458h361v-140h-361v-557h465v-139h-645q-68 -14 -213 -14q-190 0 -290.5 97t-100.5 271zM268 324q0 -94 60.5 -146.5t150.5 -52.5q143 0 213 35v1118q-70 35 -213 35q-90 0 -150.5 -52.5 t-60.5 -146.5v-790z" />
<glyph unicode="&#x153;" horiz-adv-x="1159" d="M82 260v547q0 129 79 200.5t223 71.5t226 -78q63 63 162 64h107q104 0 171.5 -59.5t67.5 -157.5v-148q0 -147 -178 -196l-242 -68v-200q0 -49 30 -81t77 -32h223v-123h-235q-115 0 -181 66q-80 -80 -226 -80t-225 72.5t-79 201.5zM246 268q0 -72 36.5 -109.5t100 -37.5 t100.5 38t37 109v531q0 72 -37 109.5t-100.5 37.5t-100 -38t-36.5 -109v-531zM698 551q49 14 101.5 27.5t75 19.5t47 14.5t30.5 18.5q16 31 17 71v136q0 113 -135.5 112.5t-135.5 -112.5v-287z" />
<glyph unicode="&#x178;" horiz-adv-x="727" d="M141 1571v166h164v-166h-164zM438 1571v166h164v-166h-164zM-14 1434h180l205 -678l209 678h180l-305 -865v-569h-181v569z" />
<glyph unicode="&#x2c6;" d="M160 1206l237 203l238 -203l-68 -61l-170 104l-170 -104z" />
<glyph unicode="&#x2dc;" horiz-adv-x="808" d="M145 1188q2 92 35 140t119 48q23 0 115 -33.5t112.5 -33.5t30.5 9t12 18.5t5.5 31t5.5 29.5h129q0 -162 -70 -193q-33 -16 -71 -16t-130 33.5t-110.5 33.5t-26.5 -2t-13 -10t-6 -13t-3.5 -20.5t-4.5 -21.5h-129z" />
<glyph unicode="&#x2000;" horiz-adv-x="913" />
<glyph unicode="&#x2001;" horiz-adv-x="1826" />
<glyph unicode="&#x2002;" horiz-adv-x="913" />
<glyph unicode="&#x2003;" horiz-adv-x="1826" />
<glyph unicode="&#x2004;" horiz-adv-x="608" />
<glyph unicode="&#x2005;" horiz-adv-x="456" />
<glyph unicode="&#x2006;" horiz-adv-x="303" />
<glyph unicode="&#x2007;" horiz-adv-x="303" />
<glyph unicode="&#x2008;" horiz-adv-x="227" />
<glyph unicode="&#x2009;" horiz-adv-x="364" />
<glyph unicode="&#x200a;" horiz-adv-x="100" />
<glyph unicode="&#x2010;" horiz-adv-x="495" d="M10 397v135h475v-135h-475z" />
<glyph unicode="&#x2011;" horiz-adv-x="495" d="M10 397v135h475v-135h-475z" />
<glyph unicode="&#x2012;" horiz-adv-x="495" d="M10 397v135h475v-135h-475z" />
<glyph unicode="&#x2013;" horiz-adv-x="890" d="M82 459v135h717v-135h-717z" />
<glyph unicode="&#x2014;" horiz-adv-x="1705" d="M82 459v135h1434v-135h-1434z" />
<glyph unicode="&#x2018;" horiz-adv-x="602" d="M55 201h174l17 -389h-164z" />
<glyph unicode="&#x2019;" horiz-adv-x="292" d="M55 -188l17 389h174l-27 -389h-164z" />
<glyph unicode="&#x201a;" horiz-adv-x="309" d="M55 1044l17 390h174l-27 -390h-164z" />
<glyph unicode="&#x201c;" horiz-adv-x="610" d="M53 1432h164l27 -390h-174zM340 1432h164l26 -390h-174z" />
<glyph unicode="&#x201d;" horiz-adv-x="655" d="M53 -188l17 389h174l-27 -389h-164zM340 -188l16 389h174l-26 -389h-164z" />
<glyph unicode="&#x201e;" horiz-adv-x="649" d="M104 1044l17 390h174l-27 -390h-164zM391 1044l17 390h174l-27 -390h-164z" />
<glyph unicode="&#x2022;" horiz-adv-x="712" d="M133 653q0 92 65.5 158t158 66t158 -66t65.5 -158t-65.5 -157.5t-158 -65.5t-158 65.5t-65.5 157.5z" />
<glyph unicode="&#x2026;" horiz-adv-x="1069" d="M797 0v211h164v-211h-164zM440 0v211h164v-211h-164zM84 0v211h164v-211h-164z" />
<glyph unicode="&#x202f;" horiz-adv-x="364" />
<glyph unicode="&#x2039;" horiz-adv-x="659" d="M61 512l287 410h178l-286 -410l286 -410h-178z" />
<glyph unicode="&#x203a;" horiz-adv-x="659" d="M133 100l287 410l-287 410h178l287 -410l-287 -410h-178z" />
<glyph unicode="&#x205f;" horiz-adv-x="456" />
<glyph unicode="&#x20ac;" horiz-adv-x="1259" d="M154 866v135h147v62q0 182 102.5 276.5t288.5 94.5h416v-136h-432q-94 0 -152.5 -54t-58.5 -144v-99h616v-135h-616v-229h612v-135h-612v-168q0 -90 59.5 -144.5t153.5 -54.5h432v-135h-418q-186 0 -288.5 94t-102.5 277v131h-145v135h145v229h-147z" />
<glyph unicode="&#x2122;" horiz-adv-x="2197" d="M965 0v1434h272l275 -848h14l281 848h262v-1434h-180v1219l-275 -838h-194l-275 840v-1221h-180zM41 1298v136h754v-136h-287v-1298h-180v1298h-287z" />
<glyph unicode="&#xe000;" horiz-adv-x="1065" d="M0 1065h1065v-1065h-1065v1065z" />
<glyph unicode="&#xfb01;" horiz-adv-x="923" d="M637 0v1065h164v-1065h-164zM637 1239v164h164v-164h-164zM51 930v135h123v119q0 115 65.5 182.5t178.5 67.5h90v-123h-62q-47 0 -77.5 -33t-30.5 -80v-133h166v-135h-166v-930h-164v930h-123z" />
<glyph unicode="&#xfb02;" horiz-adv-x="923" d="M639 0v1434h164v-1434h-164zM51 930v135h123v119q0 115 65.5 182.5t178.5 67.5h90v-123h-62q-47 0 -77.5 -33t-30.5 -80v-133h166v-135h-166v-930h-164v930h-123z" />
<glyph unicode="&#xfb03;" horiz-adv-x="1437" d="M1151 0v1065h164v-1065h-164zM1151 1239v164h164v-164h-164zM565 930v135h123v119q0 115 65.5 182.5t178.5 67.5h90v-123h-62q-47 0 -77.5 -33t-30.5 -80v-133h166v-135h-166v-930h-164v930h-123zM51 930v135h123v119q0 115 65.5 182.5t178.5 67.5h90v-123h-62 q-47 0 -77.5 -33t-30.5 -80v-133h166v-135h-166v-930h-164v930h-123z" />
<glyph unicode="&#xfb04;" horiz-adv-x="1437" d="M1153 0v1434h164v-1434h-164zM565 930v135h123v119q0 115 65.5 182.5t178.5 67.5h90v-123h-62q-47 0 -77.5 -33t-30.5 -80v-133h166v-135h-166v-930h-164v930h-123zM51 930v135h123v119q0 115 65.5 182.5t178.5 67.5h90v-123h-62q-47 0 -77.5 -33t-30.5 -80v-133h166 v-135h-166v-930h-164v930h-123z" />
</font>
</defs>
</svg>
